# xmcd
#
# Track frame offsets: 
#        150
#        21063
#        36428
#        55276
#        72583
#        88536
#        107956
#        120882
#        148221
#        165799
#        186456
#        200010
#
# Disc length: 2917 seconds
#
# Revision: 0
# Processed by: cddbd v1.5.2PL0 Copyright (c) Steve Scherf et al.
# Submitted via: ExactAudioCopy v1.0b1
#
DISCID=ac0b630c
DTITLE=Ann Kristin Eikeland - Temporary Home
DYEAR=2010
DGENRE=Country
TTITLE0=But For The Grace Of God
TTITLE1=Jesus In A Song
TTITLE2=Hver Stund Jeg Deg Behøver
TTITLE3=He's Alive
TTITLE4=I Want To Stroll Over Heaven With You
TTITLE5=I'm Gonna Sing
TTITLE6=Turn Your Eyes Upon Jesus
TTITLE7=Jeg Vet Intet Om I Morgen
TTITLE8=David Did Dance
TTITLE9=Knowing You'll Be There
TTITLE10=Temporary Home
TTITLE11=May The Good Lord Bless And Keep You
EXTD=Distribution: Prima Music
EXTT0=
EXTT1=
EXTT2=
EXTT3=
EXTT4=
EXTT5=
EXTT6=
EXTT7=
EXTT8=
EXTT9=
EXTT10=
EXTT11=
PLAYORDER=
